PathFileType	4	(X/Y/Z)	Walk2.trc
DataRate	CameraRate	NumFrames	NumMarkers	Units	OrigDataRate	OrigDataStartFrame	OrigNumFrames
200.000000	200.000000	4	59	mm	200.000000	120	381
Frame#	Times		LFHD		RFHD		LBHD		RBHD		C7		T10		CLAV		STRN		RBack		LASI		RASI		LPSI		RPSI		RACR1		RUA1		RElbow		RElbowM		RFA1		RWRR		RWRU		RCAR		LACR1		LUA1		LElbow		LElbowM		LFA1		LWRR		LWRU		LCAR		RTH1		RTH3		RTH2		RTH4		RLFC		RTB1		RTB3		RTB2		RTB4		RLMAL		RMMAL		RCAL		RMT1		RMT5		RToe		LTH1		LTH3		LTH2		LTH4		LLFC		LTB1		LTB3		LTB2		LTB4		LLMAL		LCAL		LMT5		LToe		LMMAL		LMT1
			X1	Y1	Z1	X2	Y2	Z2	X3	Y3	Z3	X4	Y4	Z4	X5	Y5	Z5	X6	Y6	Z6	X7	Y7	Z7	X8	Y8	Z8	X9	Y9	Z9	X10	Y10	Z10	X11	Y11	Z11	X12	Y12	Z12	X13	Y13	Z13	X14	Y14	Z14	X15	Y15	Z15	X16	Y16	Z16	X17	Y17	Z17	X18	Y18	Z18	X19	Y19	Z19	X20	Y20	Z20	X21	Y21	Z21	X22	Y22	Z22	X23	Y23	Z23	X24	Y24	Z24	X25	Y25	Z25	X26	Y26	Z26	X27	Y27	Z27	X28	Y28	Z28	X29	Y29	Z29	X30	Y30	Z30	X31	Y31	Z31	X32	Y32	Z32	X33	Y33	Z33	X34	Y34	Z34	X35	Y35	Z35	X36	Y36	Z36	X37	Y37	Z37	X38	Y38	Z38	X39	Y39	Z39	X40	Y40	Z40	X41	Y41	Z41	X42	Y42	Z42	X43	Y43	Z43	X44	Y44	Z44	X45	Y45	Z45	X46	Y46	Z46	X47	Y47	Z47	X48	Y48	Z48	X49	Y49	Z49	X50	Y50	Z50	X51	Y51	Z51	X52	Y52	Z52	X53	Y53	Z53	X54	Y54	Z54	X55	Y55	Z55	X56	Y56	Z56	X57	Y57	Z57	X58	Y58	Z58	X59	Y59	Z59

120	0.6	-487.81	1418.5	-19.296	-495.36	1410.5	77.128	-611.41	1334.9	-44.962	-621.32	1332.3	87.783	-649.69	1247.7	28.781	-730.82	1049.4	45.977	-505.67	1166	21.977	-453.43	1058.6	25.186	-687.07	1125.8	150.96	-538.95	794.92	-131.78	-516.62	796.98	188.39	-788.9	827.34	-15.719	-779.61	833.5	88.401	-568.29	1196	205.58	-537.49	1054.1	285.35	-531.39	929.79	321.87	-589.32	891.22	260.48	-457.13	821.9	322.07	-428.69	726.19	286.88	-460.12	721.41	351.68	-404.9	675.3	340.45	-597.71	1189.8	-160.72	-596.3	1023.7	-229.24	-640.4	910.2	-240.09	-656.05	888.19	-170.11	-593.49	817.19	-283.95	-558.22	705.78	-276.4	-612.71	708.02	-308.71	-575.67	659.73	-321.7	-614.78	617.2	234.58	-663.13	458.94	181.69	-585.37	527.62	191.16	-640.73	538.85	212.02	-711.34	379.95	160.64	-697.06	266.39	105.88	-773.19	113.7	81.477	-769.49	198.39	145.73	-738.33	190.2	93.665	-838.39	67.583	116.4	-826.62	76.689	32.699	-901.3	54.567	71.941	-738.15	24.031	41.818	-761.46	18.429	134.99	-679.26	27.608	77.779	-579.82	629.49	-187.4	-535.19	468.36	-136.02	-508.76	572.3	-139.65	-556.98	548.24	-166.18	-485.81	392.31	-97.532	-428.7	315.7	-33.399	-380.81	151.65	-29.153	-430.79	223.16	-87.389	-407.43	230.43	-30.34	-403.82	62.645	-59.617	-434.27	34.236	-11.476	-309.78	46.762	-81.089	-233.76	98.483	-38.443	-383.06	86.169	16.235	-274.28	84.041	-8.6156
121	0.605	-482.71	1418.1	-19.799	-490.27	1410	76.618	-606.29	1334.4	-45.537	-616.2	1331.7	87.212	-644.55	1247.1	28.003	-725.53	1048.7	45.069	-500.45	1165.4	21.354	-448.13	1058.2	24.723	-682.08	1125.1	150.05	-533.07	794.04	-132.09	-511.27	796.91	188.45	-783.08	826.71	-16.614	-774.36	833	87.447	-563.39	1195.3	204.9	-532.6	1053.4	284.71	-526.62	929.17	321.35	-584.42	890.56	259.87	-452.36	821.28	321.75	-423.82	725.56	286.7	-455.42	720.8	351.42	-400.14	674.75	340.4	-592.42	1189.1	-161.49	-591.05	1023	-229.93	-634.85	909.36	-240.65	-650.46	887.39	-170.68	-587.82	816.33	-284.41	-552.45	705	-276.68	-606.93	707.13	-309.06	-569.84	658.89	-321.99	-609.66	616.96	234.46	-658.61	458.77	181.81	-580.58	527.17	191.2	-635.93	538.63	212.04	-707.21	379.9	160.87	-694.04	266.05	106.19	-771.98	114.27	81.753	-767.26	198.9	146.04	-736.21	190.33	93.97	-837.71	68.844	116.73	-825.86	77.938	32.995	-900.78	56.715	72.266	-738.08	24.139	41.912	-761.4	18.408	135.01	-679.23	27.565	77.747	-573.95	629.01	-187.34	-529.2	467.99	-135.68	-502.81	571.92	-139.56	-551.01	547.82	-166	-480.05	391.82	-97.116	-423.68	314.7	-32.585	-377.01	150.38	-27.872	-426.18	222.14	-86.473	-403.04	229.31	-29.298	-400.79	61.787	-58.53	-431.85	34.144	-10.696	-307.09	44.478	-79.725	-230.11	94.264	-36.362	-380.15	84.806	17.443	-271.27	80.729	-6.7815
122	0.61	-477.6	1417.6	-20.31	-485.16	1409.5	76.1	-601.14	1333.9	-46.13	-611.04	1331.1	86.622	-639.36	1246.6	27.186	-720.21	1048.1	44.14	-495.19	1165	20.69	-442.79	1057.8	24.208	-677.06	1124.5	149.11	-527.15	793.22	-132.41	-505.9	796.9	188.46	-777.25	826.1	-17.494	-769.07	832.52	86.51	-558.46	1194.6	204.19	-527.75	1052.8	284.04	-521.9	928.6	320.8	-579.56	889.95	259.21	-447.66	820.69	321.42	-419.02	724.96	286.51	-450.81	720.22	351.15	-395.48	674.23	340.33	-587.09	1188.5	-162.31	-585.76	1022.2	-230.65	-629.24	908.55	-241.24	-644.84	886.64	-171.28	-582.1	815.49	-284.88	-546.63	704.24	-276.95	-601.1	706.26	-309.42	-563.96	658.06	-322.26	-604.45	616.74	234.32	-653.91	458.58	181.94	-575.66	526.76	191.23	-631	538.41	212.05	-702.87	379.84	161.12	-690.87	265.69	106.51	-770.68	114.91	82.027	-764.89	199.45	146.35	-733.95	190.5	94.282	-836.95	70.201	117.06	-825.01	79.279	33.3	-900.16	59.016	72.584	-737.99	24.258	42.003	-761.34	18.395	135.02	-679.2	27.522	77.702	-567.99	628.67	-187.27	-523.1	467.77	-135.35	-496.76	571.68	-139.47	-544.93	547.55	-165.83	-474.2	391.46	-96.747	-418.69	313.75	-31.818	-373.39	149.12	-26.649	-421.65	221.18	-85.621	-398.76	228.22	-28.308	-398.02	60.985	-57.529	-429.77	34.185	-10.012	-304.76	42.1	-78.465	-226.7	89.715	-34.312	-377.49	83.448	18.576	-268.55	77.183	-4.9905
123	0.615	-472.47	1417.3	-20.829	-480.04	1409.1	75.572	-595.95	1333.5	-46.74	-605.85	1330.6	86.013	-634.13	1246.1	26.329	-714.87	1047.6	43.193	-489.91	1164.5	19.989	-437.43	1057.4	23.637	-672.02	1123.9	148.13	-521.21	792.48	-132.73	-500.51	796.94	188.43	-771.4	825.53	-18.355	-763.75	832.06	85.6	-553.49	1193.9	203.44	-522.95	1052.2	283.34	-517.23	928.09	320.21	-574.74	889.41	258.49	-443.03	820.14	321.07	-414.31	724.4	286.3	-446.3	719.68	350.84	-390.92	673.74	340.25	-581.74	1187.9	-163.17	-580.44	1021.6	-231.4	-623.58	907.79	-241.86	-639.18	885.94	-171.9	-576.34	814.69	-285.35	-540.76	703.53	-277.2	-595.24	705.42	-309.77	-558.04	657.27	-322.53	-599.14	616.55	234.17	-649.03	458.39	182.09	-570.59	526.4	191.24	-625.92	538.2	212.05	-698.31	379.76	161.4	-687.53	265.33	106.84	-769.27	115.61	82.298	-762.38	200.03	146.68	-731.56	190.69	94.599	-836.12	71.665	117.39	-824.07	80.719	33.612	-899.44	61.487	72.886	-737.88	24.389	42.089	-761.27	18.396	135.01	-679.19	27.48	77.644	-561.96	628.49	-187.2	-516.92	467.7	-135.05	-490.6	571.58	-139.38	-538.75	547.44	-165.65	-468.29	391.24	-96.437	-413.72	312.88	-31.115	-369.93	147.9	-25.516	-417.18	220.3	-84.857	-394.56	227.2	-27.395	-395.46	60.258	-56.639	-427.96	34.363	-9.4401	-302.71	39.679	-77.34	-223.52	84.924	-32.333	-375.04	82.13	19.608	-266.06	73.48	-3.2772
